<svg viewBox="0 0 473.58 473.59" xmlns="http://www.w3.org/2000/svg" xmlns:xlink="http://www.w3.org/1999/xlink"><linearGradient id="a"><stop offset="0" stop-color="#555753"/><stop offset="1" stop-color="#91938e"/></linearGradient><radialGradient id="b" cx="2312.9" cy="977.92" gradientTransform="matrix(.18225 0 0 .18278 1891.4 799.18)" gradientUnits="userSpaceOnUse" r="1151.6"><stop offset="0" stop-color="#555753"/><stop offset=".96429" stop-color="#7e807c"/><stop offset="1" stop-color="#a8aaa6"/></radialGradient><linearGradient id="c" gradientTransform="matrix(.59996 -.34639 .094705 .16403 860.27 1598.4)" gradientUnits="userSpaceOnUse" spreadMethod="reflect" x1="2262.3" x2="2263.8" xlink:href="#a" y1="431.39" y2="431.39"/><linearGradient id="d" gradientTransform="matrix(.34639 -.59996 .16403 .094705 1365.1 2241.6)" gradientUnits="userSpaceOnUse" spreadMethod="reflect" x1="2262.3" x2="2263.8" xlink:href="#a" y1="431.39" y2="431.39"/><linearGradient id="e" gradientTransform="matrix(.00000001 -.69278 .18941 -.00000002 2124 2546.2)" gradientUnits="userSpaceOnUse" spreadMethod="reflect" x1="2262.3" x2="2263.8" xlink:href="#a" y1="431.39" y2="431.39"/><linearGradient id="f" gradientTransform="matrix(-.34639 -.59996 .16403 -.094705 2933.4 2430.6)" gradientUnits="userSpaceOnUse" spreadMethod="reflect" x1="2262.3" x2="2263.8" xlink:href="#a" y1="431.39" y2="431.39"/><linearGradient id="g" gradientTransform="matrix(-.59996 -.34639 .094705 -.16403 3576.6 1925.7)" gradientUnits="userSpaceOnUse" spreadMethod="reflect" x1="2262.3" x2="2263.8" xlink:href="#a" y1="431.39" y2="431.39"/><linearGradient id="h" gradientTransform="matrix(-.69278 -.00000003 -.00000002 -.18941 3881.2 1166.9)" gradientUnits="userSpaceOnUse" spreadMethod="reflect" x1="2262.3" x2="2263.8" xlink:href="#a" y1="431.39" y2="431.39"/><linearGradient id="i" gradientTransform="matrix(-.59996 .34639 -.094705 -.16403 3765.6 357.44)" gradientUnits="userSpaceOnUse" spreadMethod="reflect" x1="2262.3" x2="2263.8" xlink:href="#a" y1="431.39" y2="431.39"/><linearGradient id="j" gradientTransform="matrix(-.34639 .59996 -.16403 -.094705 3260.7 -285.77)" gradientUnits="userSpaceOnUse" spreadMethod="reflect" x1="2262.3" x2="2263.8" xlink:href="#a" y1="431.39" y2="431.39"/><linearGradient id="k" gradientTransform="matrix(0 .69278 -.18941 .00000002 2501.9 -590.37)" gradientUnits="userSpaceOnUse" spreadMethod="reflect" x1="2262.3" x2="2263.8" xlink:href="#a" y1="431.39" y2="431.39"/><linearGradient id="l" gradientTransform="matrix(.34639 .59996 -.16403 .094705 1692.5 -474.75)" gradientUnits="userSpaceOnUse" spreadMethod="reflect" x1="2262.3" x2="2263.8" xlink:href="#a" y1="431.39" y2="431.39"/><linearGradient id="m" gradientTransform="matrix(.59996 .34639 -.094705 .16403 1049.2 30.117)" gradientUnits="userSpaceOnUse" spreadMethod="reflect" x1="2262.3" x2="2263.8" xlink:href="#a" y1="431.39" y2="431.39"/><linearGradient id="n" gradientTransform="matrix(.69278 0 0 .18941 744.65 788.94)" gradientUnits="userSpaceOnUse" spreadMethod="reflect" x1="2262.3" x2="2263.8" xlink:href="#a" y1="431.39" y2="431.39"/><linearGradient id="o" gradientTransform="matrix(.65578 .22337 -.061071 .17929 889.34 293.38)" gradientUnits="userSpaceOnUse" spreadMethod="reflect" x1="2262.3" x2="2263.8" xlink:href="#a" y1="431.39" y2="431.39"/><linearGradient id="p" gradientTransform="matrix(.45624 .52134 -.14254 .12474 1422.3 -326.71)" gradientUnits="userSpaceOnUse" spreadMethod="reflect" x1="2262.3" x2="2263.8" xlink:href="#a" y1="431.39" y2="431.39"/><linearGradient id="q" gradientTransform="matrix(.13445 .67961 -.18581 .036758 2194 -597.23)" gradientUnits="userSpaceOnUse" spreadMethod="reflect" x1="2262.3" x2="2263.8" xlink:href="#a" y1="431.39" y2="431.39"/><linearGradient id="r" gradientTransform="matrix(-.22337 .65578 -.17929 -.061071 2997.5 -445.68)" gradientUnits="userSpaceOnUse" spreadMethod="reflect" x1="2262.3" x2="2263.8" xlink:href="#a" y1="431.39" y2="431.39"/><linearGradient id="s" gradientTransform="matrix(-.52134 .45624 -.12474 -.14254 3617.6 87.318)" gradientUnits="userSpaceOnUse" spreadMethod="reflect" x1="2262.3" x2="2263.8" xlink:href="#a" y1="431.39" y2="431.39"/><linearGradient id="t" gradientTransform="matrix(-.67961 .13445 -.036758 -.18581 3888.1 858.95)" gradientUnits="userSpaceOnUse" spreadMethod="reflect" x1="2262.3" x2="2263.8" xlink:href="#a" y1="431.39" y2="431.39"/><linearGradient id="u" gradientTransform="matrix(-.65578 -.22337 .061071 -.17929 3736.5 1662.5)" gradientUnits="userSpaceOnUse" spreadMethod="reflect" x1="2262.3" x2="2263.8" xlink:href="#a" y1="431.39" y2="431.39"/><linearGradient id="v" gradientTransform="matrix(-.45624 -.52134 .14254 -.12474 3203.5 2282.6)" gradientUnits="userSpaceOnUse" spreadMethod="reflect" x1="2262.3" x2="2263.8" xlink:href="#a" y1="431.39" y2="431.39"/><linearGradient id="w" gradientTransform="matrix(-.13445 -.67961 .18581 -.036758 2431.9 2553.1)" gradientUnits="userSpaceOnUse" spreadMethod="reflect" x1="2262.3" x2="2263.8" xlink:href="#a" y1="431.39" y2="431.39"/><linearGradient id="x" gradientTransform="matrix(.22337 -.65578 .17929 .061071 1628.4 2401.5)" gradientUnits="userSpaceOnUse" spreadMethod="reflect" x1="2262.3" x2="2263.8" xlink:href="#a" y1="431.39" y2="431.39"/><linearGradient id="y" gradientTransform="matrix(.52134 -.45624 .12474 .14254 1008.3 1868.5)" gradientUnits="userSpaceOnUse" spreadMethod="reflect" x1="2262.3" x2="2263.8" xlink:href="#a" y1="431.39" y2="431.39"/><radialGradient id="z" cx="2226.4" cy="882.66" gradientTransform="matrix(.7637 0 0 .73563 526.09 233.35)" gradientUnits="userSpaceOnUse" r="133.34"><stop offset="0" stop-color="#2e3436"/><stop offset=".82143" stop-color="#505a5e"/><stop offset="1" stop-color="#2e3436"/></radialGradient><linearGradient id="A" gradientTransform="matrix(.67961 -.13445 .036758 .18581 737.79 1096.9)" gradientUnits="userSpaceOnUse" spreadMethod="reflect" x1="2262.3" x2="2263.8" xlink:href="#a" y1="431.39" y2="431.39"/><filter id="B"><feGaussianBlur stdDeviation="27.211825"/></filter><g transform="translate(-2076.1 -741.13)"><g fill-rule="evenodd"><path d="m2270.3 767.66 41.6 210.46 2-.39-41.6-210.46z" fill="url(#A)"/><path d="m2355.6 1188.2-41.7-210.47-2 .39 41.7 210.48z" fill="url(#t)"/><path d="m2523.2 935.3-210.5 41.63.4 1.98 210.5-41.64z" fill="url(#q)"/><path d="m2311.9 763.39v214.53h2v-214.53z" fill="url(#n)"/><path d="m2419.3 791.62-107.2 185.8 1.7 1.01 107.3-185.8z" fill="url(#m)"/><path d="m2498.2 869.78-185.8 107.27 1 1.74 185.8-107.26z" fill="url(#l)"/><path d="m2527.5 976.92h-214.6v2.01h214.6z" fill="url(#k)"/><path d="m2499.2 1084.3-185.8-107.25-1 1.74 185.8 107.31z" fill="url(#j)"/><path d="m2421.1 1163.2-107.3-185.78-1.7 1.01 107.2 185.77z" fill="url(#i)"/><path d="m2206.5 1164.2 107.3-185.77-1.7-1.01-107.3 185.78z" fill="url(#g)"/><path d="m2127.6 1086.1 185.8-107.31-1-1.74-185.8 107.25z" fill="url(#f)"/><path d="m2098.4 978.93h214.5v-2.01h-214.5z" fill="url(#e)"/><path d="m2126.6 871.53 185.8 107.26 1-1.74-185.8-107.27z" fill="url(#d)"/><path d="m2204.8 792.63 107.3 185.8 1.7-1.01-107.3-185.8z" fill="url(#c)"/><path d="m2381.2 774.52-69.2 203.08 1.9.65 69.2-203.08z" fill="url(#o)"/><path d="m2473.7 835.88-161.4 141.28 1.3 1.52 161.4-141.29z" fill="url(#p)"/><path d="m2516.3 1046.1-203-69.13-.7 1.9 203.1 69.13z" fill="url(#r)"/><path d="m2455 1138.7-141.3-161.44-1.5 1.32 141.3 161.42z" fill="url(#s)"/><path d="m2244.7 1181.3 69.2-203.05-1.9-.65-69.2 203.1z" fill="url(#u)"/><path d="m2152.2 1120 161.4-141.32-1.3-1.52-161.5 141.24z" fill="url(#v)"/><path d="m2102.7 1020.5 210.4-41.59-.4-1.98-210.4 41.67z" fill="url(#w)"/><path d="m2109.5 909.7 203.1 69.17.7-1.9-203.1-69.17z" fill="url(#x)"/><path d="m2170.9 817.14 141.3 161.44 1.5-1.32-141.3-161.45z" fill="url(#y)"/><path d="m2313.9 1192.5v-214.58h-2v214.58z" fill="url(#h)"/></g><path d="m2312.9 743.02c-129.6 0-234.9 105.23-234.9 234.9 0 129.68 105.3 234.88 234.9 234.88 129.7 0 234.9-105.2 234.9-234.88 0-129.67-105.2-234.9-234.9-234.9zm0 16.78c120.4 0 218.2 97.72 218.2 218.12 0 120.38-97.8 218.08-218.2 218.08s-218.1-97.7-218.1-218.08c0-120.4 97.7-218.12 218.1-218.12z" style="stroke-linejoin:round;stroke:#2e3436;stroke-linecap:round;stroke-dasharray:15.152819 3.788205;stroke-width:3.7882;fill:#2e3436"/><path d="m2312.9-219.41c-660.9 0-1197.3 536.41-1197.3 1197.3 0 660.91 536.4 1197.3 1197.3 1197.3s1197.3-536.4 1197.3-1197.3-536.4-1197.3-1197.3-1197.3zm0 45.75c635.7 0 1151.6 515.9 1151.6 1151.6 0 635.66-515.9 1151.6-1151.6 1151.6-635.6 0-1151.5-515.9-1151.5-1151.6 0-635.66 515.9-1151.6 1151.5-1151.6z" fill="#eeeeec" filter="url(#B)" opacity=".16477" transform="matrix(.18941 0 0 .18941 1874.8 792.69)"/><path d="m2312.9 759.8c-120.4 0-218.1 97.72-218.1 218.12 0 120.38 97.7 218.08 218.1 218.08s218.2-97.7 218.2-218.08c0-120.4-97.8-218.12-218.2-218.12zm0 16.78c111.2 0 201.4 90.2 201.4 201.34 0 111.18-90.2 201.38-201.4 201.38-111.1 0-201.3-90.2-201.3-201.38 0-111.14 90.2-201.34 201.3-201.34z" fill="url(#b)"/><path d="m2359.7 882.66a133.34 133.34 0 1 1 -266.7 0 133.34 133.34 0 1 1 266.7 0z" fill="url(#z)" transform="matrix(.17616 0 0 .17616 1920.7 822.43)"/><path d="m2359.7 882.66a133.34 133.34 0 1 1 -266.7 0 133.34 133.34 0 1 1 266.7 0z" fill="#2e3436" transform="matrix(.10585 0 0 .10585 2077.3 884.49)"/></g></svg>